<svg width="49" height="12" viewBox="0 0 49 12" fill="none" xmlns="http://www.w3.org/2000/svg">
<path d="M2.36559 6.03741C2.53897 6.03741 2.6886 6.01603 2.81447 5.97328C2.94035 5.92815 3.04367 5.86759 3.12442 5.79159C3.20517 5.71321 3.26455 5.62177 3.30255 5.51727C3.34055 5.41277 3.35955 5.29876 3.35955 5.17526C3.35955 4.93063 3.27761 4.74063 3.11373 4.60525C2.95223 4.46987 2.70522 4.40218 2.37271 4.40218H1.81695V6.03741H2.36559ZM4.87008 8.75922H3.90462C3.72412 8.75922 3.59349 8.69034 3.51274 8.55259L2.52947 6.96724C2.48909 6.90549 2.44396 6.86036 2.39409 6.83186C2.34659 6.80336 2.27534 6.78911 2.18033 6.78911H1.81695V8.75922H0.748177V3.58991H2.37271C2.73372 3.58991 3.04248 3.62791 3.29898 3.70392C3.55549 3.77754 3.76568 3.88086 3.92956 4.01386C4.09344 4.14686 4.21338 4.30599 4.28938 4.49125C4.36538 4.67413 4.40338 4.87601 4.40338 5.09689C4.40338 5.26789 4.37845 5.43058 4.32857 5.58496C4.28107 5.73696 4.211 5.8759 4.11838 6.00178C4.02575 6.12766 3.91175 6.23929 3.77637 6.33666C3.64099 6.43404 3.48661 6.51242 3.31323 6.57179C3.38211 6.60979 3.44624 6.65611 3.50561 6.71073C3.56499 6.76298 3.61843 6.82592 3.66593 6.89955L4.87008 8.75922ZM7.32637 6.48985C7.32637 6.38773 7.31212 6.29035 7.28362 6.19772C7.25749 6.10509 7.21474 6.02316 7.15536 5.9519C7.09599 5.88065 7.02117 5.82484 6.93092 5.78446C6.84067 5.74171 6.7326 5.72034 6.60673 5.72034C6.3716 5.72034 6.18753 5.78684 6.05453 5.91984C5.92152 6.05284 5.83483 6.24285 5.79446 6.48985H7.32637ZM5.78021 7.07412C5.81108 7.4185 5.90846 7.67025 6.07234 7.82938C6.23859 7.98851 6.45472 8.06808 6.72073 8.06808C6.85611 8.06808 6.97249 8.05264 7.06986 8.02176C7.16961 7.98851 7.2563 7.95289 7.32993 7.91489C7.40593 7.87451 7.47362 7.83888 7.533 7.80801C7.59475 7.77476 7.65531 7.75813 7.71469 7.75813C7.79069 7.75813 7.85007 7.78663 7.89282 7.84363L8.17782 8.19989C8.07332 8.32102 7.95813 8.42196 7.83225 8.50271C7.70638 8.58109 7.57575 8.64403 7.44037 8.69153C7.30499 8.73665 7.16843 8.76753 7.03067 8.78415C6.89292 8.80315 6.75992 8.81265 6.63167 8.81265C6.37516 8.81265 6.13528 8.77109 5.91202 8.68796C5.69114 8.60246 5.49758 8.47777 5.33132 8.31389C5.16745 8.14764 5.038 7.9422 4.943 7.69757C4.848 7.45294 4.8005 7.16912 4.8005 6.84611C4.8005 6.59673 4.84088 6.3616 4.92163 6.14072C5.00475 5.91984 5.12351 5.72746 5.27788 5.56358C5.43226 5.3997 5.61989 5.27026 5.84077 5.17526C6.06165 5.07788 6.31103 5.0292 6.58891 5.0292C6.82404 5.0292 7.04017 5.0672 7.2373 5.1432C7.43681 5.21683 7.60781 5.32489 7.75031 5.46739C7.89519 5.6099 8.00682 5.78565 8.0852 5.99465C8.16595 6.20128 8.20633 6.4376 8.20633 6.70361C8.20633 6.77723 8.20276 6.8378 8.19564 6.8853C8.18851 6.9328 8.17664 6.9708 8.16001 6.9993C8.14339 7.0278 8.12082 7.04799 8.09232 7.05987C8.06382 7.06937 8.02701 7.07412 7.98188 7.07412H5.78021ZM10.7367 7.22374C10.4968 7.23562 10.2973 7.257 10.1382 7.28787C9.97906 7.31637 9.852 7.35437 9.75699 7.40187C9.66437 7.44937 9.59786 7.504 9.55749 7.56575C9.51949 7.62513 9.50049 7.69044 9.50049 7.76169C9.50049 7.9042 9.53968 8.00514 9.61805 8.06451C9.6988 8.12389 9.81043 8.15358 9.95294 8.15358C10.1168 8.15358 10.2581 8.12508 10.3769 8.06808C10.498 8.0087 10.6179 7.91726 10.7367 7.79376V7.22374ZM8.73453 5.59565C8.95066 5.40089 9.18936 5.25601 9.45061 5.16101C9.71187 5.06363 9.9945 5.01495 10.2985 5.01495C10.517 5.01495 10.7118 5.05057 10.8828 5.12182C11.0561 5.19307 11.2022 5.29283 11.321 5.42108C11.4421 5.54696 11.5347 5.69777 11.5988 5.87353C11.663 6.04928 11.695 6.24166 11.695 6.45067V8.75922H11.2462C11.1535 8.75922 11.0823 8.74615 11.0324 8.72003C10.9849 8.6939 10.9457 8.63928 10.9148 8.55615L10.8365 8.32102C10.7438 8.40177 10.6536 8.47302 10.5657 8.53477C10.4802 8.59653 10.3911 8.64878 10.2985 8.69153C10.2059 8.7319 10.1061 8.76278 9.99925 8.78415C9.89475 8.80553 9.77718 8.81622 9.64655 8.81622C9.48505 8.81622 9.3378 8.79484 9.20479 8.75209C9.07179 8.70934 8.9566 8.6464 8.85922 8.56327C8.76422 8.47777 8.69059 8.37208 8.63834 8.2462C8.58609 8.12033 8.55997 7.97545 8.55997 7.81157C8.55997 7.67619 8.5944 7.54081 8.66328 7.40544C8.73216 7.27006 8.84972 7.14774 9.01598 7.03849C9.18461 6.92686 9.40786 6.83542 9.68574 6.76417C9.966 6.69055 10.3163 6.64898 10.7367 6.63948V6.45067C10.7367 6.22028 10.688 6.05166 10.5906 5.94478C10.4933 5.83553 10.3531 5.7809 10.1703 5.7809C10.0349 5.7809 9.92206 5.79753 9.83181 5.83078C9.74156 5.86165 9.66199 5.89609 9.59311 5.93409C9.52661 5.96972 9.46367 6.00416 9.4043 6.03741C9.34492 6.06828 9.27605 6.08372 9.19767 6.08372C9.12879 6.08372 9.0706 6.06709 9.0231 6.03384C8.97798 5.99822 8.93998 5.95665 8.9091 5.90915L8.73453 5.59565ZM14.7319 6.04097C14.6393 5.93409 14.5383 5.85928 14.4291 5.81653C14.3222 5.77378 14.2082 5.7524 14.0871 5.7524C13.9683 5.7524 13.8603 5.77496 13.7629 5.82009C13.6655 5.86521 13.5812 5.93647 13.5099 6.03384C13.4411 6.12885 13.3876 6.25116 13.3496 6.40079C13.3116 6.55042 13.2926 6.72855 13.2926 6.93518C13.2926 7.13943 13.3081 7.31281 13.3389 7.45531C13.3698 7.59782 13.4138 7.71301 13.4708 7.80088C13.5301 7.88876 13.6014 7.95289 13.6845 7.99326C13.7676 8.03126 13.8603 8.05026 13.9624 8.05026C14.1358 8.05026 14.2807 8.01582 14.397 7.94695C14.5158 7.87807 14.6274 7.78069 14.7319 7.65482V6.04097ZM15.7152 3.44741V8.75922H15.1095C14.9837 8.75922 14.9029 8.70222 14.8673 8.58821L14.7854 8.26758C14.7117 8.34833 14.6333 8.42196 14.5502 8.48846C14.4695 8.55496 14.3816 8.61315 14.2866 8.66303C14.1916 8.71053 14.0895 8.74734 13.9802 8.77347C13.871 8.79959 13.7522 8.81265 13.624 8.81265C13.4268 8.81265 13.2463 8.77109 13.0824 8.68796C12.9186 8.60484 12.7761 8.48371 12.6549 8.32458C12.5362 8.16308 12.4435 7.96595 12.377 7.73319C12.3105 7.50044 12.2773 7.23443 12.2773 6.93518C12.2773 6.66204 12.3141 6.40791 12.3877 6.17278C12.4637 5.93765 12.5706 5.73459 12.7084 5.56358C12.8461 5.39258 13.0124 5.25839 13.2071 5.16101C13.4019 5.06363 13.618 5.01495 13.8555 5.01495C14.055 5.01495 14.2225 5.04463 14.3578 5.10401C14.4956 5.16339 14.6203 5.24414 14.7319 5.34627V3.44741H15.7152ZM24.0594 3.58991V8.75922H23.1153V5.58496C23.1153 5.51846 23.1165 5.44721 23.1189 5.3712C23.1236 5.2952 23.1308 5.21801 23.1403 5.13964L21.6618 7.94339C21.581 8.09776 21.4564 8.17495 21.2877 8.17495H21.1381C21.055 8.17495 20.9813 8.15595 20.9172 8.11795C20.8531 8.07758 20.802 8.01939 20.764 7.94339L19.2784 5.12895C19.2856 5.21208 19.2915 5.29283 19.2962 5.3712C19.301 5.44721 19.3034 5.51846 19.3034 5.58496V8.75922H18.3593V3.58991H19.1716C19.2167 3.58991 19.2571 3.5911 19.2927 3.59348C19.3283 3.59585 19.3592 3.60298 19.3853 3.61485C19.4138 3.62435 19.4387 3.64098 19.4601 3.66473C19.4839 3.6861 19.5064 3.71698 19.5278 3.75736L20.9742 6.51479C21.0193 6.59792 21.0609 6.68342 21.0989 6.7713C21.1393 6.85917 21.1773 6.94943 21.2129 7.04205C21.2485 6.94705 21.2854 6.85442 21.3234 6.76417C21.3637 6.67392 21.4065 6.58723 21.4516 6.5041L22.8873 3.75736C22.9087 3.71698 22.9313 3.6861 22.955 3.66473C22.9788 3.64098 23.0037 3.62435 23.0298 3.61485C23.0583 3.60298 23.0892 3.59585 23.1225 3.59348C23.1581 3.5911 23.1996 3.58991 23.2471 3.58991H24.0594ZM26.5464 5.0292C26.8219 5.0292 27.0725 5.07313 27.2981 5.16101C27.5238 5.24889 27.7173 5.37477 27.8788 5.53864C28.0403 5.70015 28.165 5.89728 28.2529 6.13003C28.3408 6.36279 28.3847 6.62523 28.3847 6.91736C28.3847 7.20949 28.3408 7.47313 28.2529 7.70826C28.165 7.94101 28.0403 8.13933 27.8788 8.30321C27.7173 8.46708 27.5238 8.59296 27.2981 8.68084C27.0725 8.76872 26.8219 8.81265 26.5464 8.81265C26.2685 8.81265 26.0156 8.76872 25.7876 8.68084C25.562 8.59296 25.3684 8.46708 25.2069 8.30321C25.0454 8.13933 24.9195 7.94101 24.8293 7.70826C24.7414 7.47313 24.6974 7.20949 24.6974 6.91736C24.6974 6.62523 24.7414 6.36279 24.8293 6.13003C24.9195 5.89728 25.0454 5.70015 25.2069 5.53864C25.3684 5.37477 25.562 5.24889 25.7876 5.16101C26.0156 5.07313 26.2685 5.0292 26.5464 5.0292ZM26.5464 8.0752C26.8267 8.0752 27.0345 7.97901 27.1699 7.78663C27.3053 7.59188 27.3729 7.30331 27.3729 6.92093C27.3729 6.54092 27.3053 6.25472 27.1699 6.06234C27.0345 5.86759 26.8267 5.77021 26.5464 5.77021C26.259 5.77021 26.0477 5.86759 25.9123 6.06234C25.7769 6.25472 25.7092 6.54092 25.7092 6.92093C25.7092 7.30331 25.7769 7.59188 25.9123 7.78663C26.0477 7.97901 26.259 8.0752 26.5464 8.0752ZM29.9248 5.69184C30.0412 5.48283 30.1754 5.31776 30.3274 5.19664C30.4794 5.07551 30.6575 5.01495 30.8618 5.01495C31.028 5.01495 31.1634 5.05413 31.2679 5.13251L31.2038 5.85928C31.1919 5.90678 31.1729 5.94003 31.1468 5.95903C31.123 5.97565 31.0898 5.98397 31.047 5.98397C31.009 5.98397 30.9544 5.97922 30.8831 5.96972C30.8119 5.95784 30.7454 5.9519 30.6836 5.9519C30.5934 5.9519 30.5126 5.96497 30.4414 5.99109C30.3725 6.01722 30.3108 6.05403 30.2561 6.10153C30.2015 6.14903 30.1516 6.20722 30.1065 6.2761C30.0637 6.34498 30.0234 6.42335 29.9854 6.51123V8.75922H29.0021V5.0862H29.5828C29.6826 5.0862 29.7514 5.10401 29.7894 5.13964C29.8274 5.17526 29.8547 5.23701 29.8714 5.32489L29.9248 5.69184ZM33.9344 6.48985C33.9344 6.38773 33.9201 6.29035 33.8916 6.19772C33.8655 6.10509 33.8228 6.02316 33.7634 5.9519C33.704 5.88065 33.6292 5.82484 33.5389 5.78446C33.4487 5.74171 33.3406 5.72034 33.2147 5.72034C32.9796 5.72034 32.7955 5.78684 32.6625 5.91984C32.5295 6.05284 32.4428 6.24285 32.4025 6.48985H33.9344ZM32.3882 7.07412C32.4191 7.4185 32.5165 7.67025 32.6804 7.82938C32.8466 7.98851 33.0627 8.06808 33.3287 8.06808C33.4641 8.06808 33.5805 8.05264 33.6779 8.02176C33.7776 7.98851 33.8643 7.95289 33.9379 7.91489C34.0139 7.87451 34.0816 7.83888 34.141 7.80801C34.2028 7.77476 34.2633 7.75813 34.3227 7.75813C34.3987 7.75813 34.4581 7.78663 34.5008 7.84363L34.7858 8.19989C34.6813 8.32102 34.5661 8.42196 34.4403 8.50271C34.3144 8.58109 34.1838 8.64403 34.0484 8.69153C33.913 8.73665 33.7764 8.76753 33.6387 8.78415C33.5009 8.80315 33.3679 8.81265 33.2397 8.81265C32.9832 8.81265 32.7433 8.77109 32.52 8.68796C32.2992 8.60246 32.1056 8.47777 31.9393 8.31389C31.7755 8.14764 31.646 7.9422 31.551 7.69757C31.456 7.45294 31.4085 7.16912 31.4085 6.84611C31.4085 6.59673 31.4489 6.3616 31.5296 6.14072C31.6128 5.91984 31.7315 5.72746 31.8859 5.56358C32.0403 5.3997 32.2279 5.27026 32.4488 5.17526C32.6697 5.07788 32.919 5.0292 33.1969 5.0292C33.4321 5.0292 33.6482 5.0672 33.8453 5.1432C34.0448 5.21683 34.2158 5.32489 34.3583 5.46739C34.5032 5.6099 34.6148 5.78565 34.6932 5.99465C34.774 6.20128 34.8143 6.4376 34.8143 6.70361C34.8143 6.77723 34.8108 6.8378 34.8036 6.8853C34.7965 6.9328 34.7846 6.9708 34.768 6.9993C34.7514 7.0278 34.7288 7.04799 34.7003 7.05987C34.6718 7.06937 34.635 7.07412 34.5899 7.07412H32.3882Z" fill="#285A43"/>
<path d="M43.6678 8.43121L43.0444 7.78549L44.6253 6.2046H39.2146V5.31395H44.6253L43.0444 3.73306L43.6678 3.08734L46.3397 5.75928L43.6678 8.43121Z" fill="#285A43"/>
</svg>
